<svg xmlns="http://www.w3.org/2000/svg" viewBox="0 0 122 65"><path class="sh-logo" d="M9.6 22.2c0.1 0.6 0.4 1.8 0.8 2.9 0.2 0.4 0.4 0.9 0.6 1.3v0c0.3 0.5 0.6 1.1 0.9 1.5 1.3-1.5 3.2-2.5 5.3-2.5 0-0.4 0.1-1.2 0.2-2.2 0.1-0.8 0.2-1.5 0.4-2.3 0.2-0.6 0.4-1.2 0.6-1.7 0.2-0.6 0.5-1.1 0.8-1.7 1.4-2.5 3.4-4.6 5.9-6.1 2.9-1.7 6.3-2.4 9.6-2 0.3 1.2 1.3 2 2.5 2 1.4 0 2.6-1.2 2.6-2.6 0-1.4-1.2-2.6-2.6-2.6 -0.9 0-1.7 0.4-2.1 1.1 -3.8-0.5-7.7 0.3-11 2.2 -4.1 2.4-7 6.2-8.2 10.7 -0.3 1.2-0.5 2.4-0.6 3.5 -1 0.2-1.9 0.6-2.8 1.2 -0.3-0.7-0.6-1.5-0.8-2.2 -1.1-4-0.5-8.2 1.6-11.8 1.7-2.9 4.2-5.2 7.3-6.5 0.5 0.5 1.2 0.8 1.9 0.8 1.4 0 2.6-1.2 2.6-2.6 0-1.4-1.2-2.6-2.6-2.6 -1.4 0-2.5 1.1-2.6 2.4 -3.6 1.5-6.4 4-8.4 7.4 -1.5 2.7-2.4 5.7-2.4 8.8C9.3 20 9.4 21.1 9.6 22.2"></path><path class="st2" d="M46.9 40.9c-1.4 0-2.6 1.2-2.6 2.6 0 0.3 0 0.5 0.1 0.8 -2.7 2-5.9 3.1-9.3 3.1 -5.4 0-10.4-2.8-13.2-7.3 2.6-1.6 4.2-4.4 4.2-7.5 0-3.1-1.6-5.9-4.2-7.5 2.8-4.5 7.9-7.3 13.2-7.3 3.4 0 6.6 1.1 9.3 3.1 -0.1 0.2-0.1 0.5-0.1 0.8 0 1.4 1.2 2.6 2.6 2.6 1.4 0 2.6-1.2 2.6-2.6 0-1.4-1.2-2.6-2.6-2.6 -0.4 0-0.8 0.1-1.1 0.3 -3.1-2.3-6.7-3.6-10.6-3.6 -6.1 0-11.8 3.2-15 8.4 -0.2 0.4-0.4 1-0.6 1.7 2.9 0.9 5 3.6 5 6.8 0 3.2-2.1 5.9-5 6.8 0.1 0.7 0.4 1.3 0.6 1.7 3.2 5.2 8.9 8.4 15 8.4 3.9 0 7.5-1.2 10.6-3.6 0.3 0.2 0.7 0.3 1.1 0.3 1.4 0 2.6-1.2 2.6-2.6C49.5 42.1 48.4 40.9 46.9 40.9"></path><path class="st2" d="M6.9 57.5c-0.3 0-0.5 0-0.8 0.1 -2-2.7-3.1-5.9-3.1-9.3 0-3.2 1-6.2 2.7-8.8l0 0c0 0 0 0 0 0 0.9-1.4 2.1-2.6 3.5-3.6 0 0 0 0 0 0 0.6-0.4 1.1-0.7 1.4-0.8 -0.3-0.8-0.5-1.7-0.5-2.6 0-0.9 0.2-1.8 0.5-2.6 -0.6-0.2-1.6-0.8-2.8-2 -0.7-0.7-1.4-1.4-1.9-2.2 -0.1-0.1-0.1-0.2-0.2-0.3l0 0c-1.8-2.6-2.8-5.6-2.8-8.8 0-3.4 1.1-6.6 3.1-9.3 0.2 0.1 0.5 0.1 0.8 0.1 1.4 0 2.6-1.2 2.6-2.6 0-1.4-1.2-2.6-2.6-2.6 -1.4 0-2.6 1.2-2.6 2.6 0 0.4 0.1 0.8 0.3 1.1C2.2 9.1 1 12.8 1 16.6c0 5.8 2.9 11.2 7.7 14.5 -0.1 0.4-0.1 0.9-0.1 1.3 0 0.4 0 0.9 0.1 1.3C3.9 37.1 1 42.5 1 48.4c0 3.9 1.2 7.5 3.6 10.6 -0.2 0.3-0.3 0.7-0.3 1.1 0 1.4 1.2 2.6 2.6 2.6 1.4 0 2.6-1.2 2.6-2.6C9.5 58.7 8.3 57.5 6.9 57.5"></path><path class="st2" d="M37.3 53.5c-1.2 0-2.3 0.9-2.5 2 -3.3 0.4-6.7-0.3-9.6-2 -2.5-1.5-4.5-3.5-5.9-6 -0.3-0.5-0.6-1.1-0.8-1.7 -0.2-0.5-0.4-1.1-0.6-1.7 -0.2-0.7-0.3-1.5-0.4-2.3 -0.2-1-0.2-1.8-0.2-2.2 -2.1 0-4-1-5.3-2.5 -1.3 1.6-2.1 4.6-2.3 5.8 -0.2 1.1-0.3 2.2-0.3 3.3 0 3.1 0.8 6.1 2.4 8.8 1.9 3.4 4.8 5.9 8.4 7.4 0.1 1.3 1.2 2.4 2.6 2.4 1.4 0 2.6-1.2 2.6-2.6 0-1.4-1.2-2.6-2.6-2.6 -0.7 0-1.4 0.3-1.9 0.8 -3.1-1.3-5.6-3.6-7.3-6.5 -2.1-3.6-2.6-7.8-1.6-11.8 0.2-0.7 0.5-1.5 0.8-2.2 0.8 0.5 1.8 0.9 2.7 1.2 0.1 1.2 0.3 2.4 0.6 3.5 1.2 4.5 4.1 8.3 8.2 10.7 3.3 1.9 7.2 2.7 11 2.2 0.5 0.7 1.3 1.1 2.1 1.1 1.4 0 2.6-1.2 2.6-2.6C39.9 54.7 38.7 53.5 37.3 53.5"></path><path class="st2" d="M23.1 32.5c0 3.2-2.6 5.7-5.7 5.7 -3.2 0-5.7-2.6-5.7-5.7 0-3.2 2.6-5.7 5.7-5.7C20.6 26.8 23.1 29.3 23.1 32.5"></path><path class="st2" d="M42.9 28.9l-0.8 1.5c-0.2-0.2-1.1-0.7-2.2-0.7 -0.7 0-1.3 0.3-1.3 0.7 0 0.6 0.8 0.7 2.2 1.1 1.4 0.4 2.5 1.2 2.5 2.6 0 1.3-1.2 2.7-3.7 2.7 -1.9 0-3.2-0.9-3.5-1.1l0.9-1.6c0.6 0.4 1.5 0.9 2.6 0.9 1 0 1.6-0.3 1.6-0.8 0-0.6-1.1-0.8-2.2-1.2 -1.2-0.4-2.5-0.9-2.5-2.3 0-1.5 1.5-2.5 3.5-2.5C41.4 28.1 42.5 28.7 42.9 28.9"></path><path class="st2" d="M51.2 29.3L50 30.8c-0.2-0.2-0.8-0.7-1.9-0.7 -1.4 0-2.3 1.1-2.3 2.3 0 1.5 1 2.4 2.4 2.4 1.2 0 1.9-0.8 1.9-0.8l1.2 1.5c-0.1 0.1-1.1 1.3-3.4 1.3 -2.5 0-4.4-1.7-4.4-4.3 0-2.5 1.9-4.3 4.3-4.3C50 28.1 51.1 29.3 51.2 29.3"></path><path class="st2" d="M53.9 28.4V30c0.2-0.9 1.1-1.9 2.5-1.9 0.2 0 0.4 0 0.6 0l-0.1 2c-0.1 0-0.2 0-0.3 0 -1.5 0-2.5 0.4-2.5 1.8v4.6H52v-8.2H53.9z"></path><path class="st2" d="M57.8 28.9c0.2-0.2 1.5-0.8 2.9-0.8 2.4 0 3.3 1.3 3.3 2.7l0 3.9c0 1.2 0.2 1.5 0.3 1.8l-1.8 0.3c-0.1-0.3-0.2-0.5-0.2-0.8 -0.2 0.2-0.8 0.9-2.2 0.9 -1.9 0-3-1.5-3-2.9 0-1.9 1.3-3 3.1-3 1.1 0 1.8 0.6 1.9 0.6 0 0 0-0.1 0-0.1 0-0.8-0.3-1.5-1.5-1.5 -1 0-1.8 0.5-2 0.6L57.8 28.9zM60.6 35.1c1 0 1.6-0.7 1.6-1.3 0-0.6-0.5-1.3-1.6-1.3 -1.1 0-1.5 0.7-1.5 1.3C59.1 34.4 59.5 35.1 60.6 35.1"></path><path class="st2" d="M65.1 39.5V30c0-0.6-0.1-1-0.2-1.1 0.3-0.1 1.4-0.8 3.6-0.8 3 0 4.9 1.8 4.9 4.5 0 2.4-1.6 4.2-4.1 4.2 -1.2 0-2-0.4-2.1-0.5v3.2H65.1zM68.6 30c-0.9 0-1.3 0.2-1.4 0.2V34c0 0.5 0.7 0.8 1.6 0.8 1.3 0 2.5-0.6 2.5-2.4C71.3 30.7 69.9 30 68.6 30"></path><path class="st2" d="M75.3 24.7c0.7 0 1.3 0.5 1.3 1.3 0 0.7-0.6 1.3-1.3 1.3 -0.7 0-1.3-0.5-1.3-1.3C74 25.3 74.6 24.7 75.3 24.7M76.4 36.6h-2.1v-8.2h2.1V36.6z"></path><path class="st2" d="M85 36.6h-2.1v-4.9c0-1-0.5-1.6-1.8-1.6 -0.8 0-1.1 0.1-1.4 0.2v6.4h-2.1v-6.7c0-0.9 0-0.8-0.3-1.1 0.6-0.2 1.6-0.6 3.8-0.6 2.3 0 3.8 1.1 3.8 3.4V36.6z"></path><path class="st2" d="M86.8 39.5l0.8-1.7c0.1 0.1 0.9 0.7 2.4 0.7 1.6 0 2.1-0.7 2.1-1.8V36c-0.1 0.1-0.9 0.7-2.3 0.7 -2.2 0-4.1-1.6-4.1-4.3 0-2.2 1.9-4.3 4.8-4.3 2.2 0 3.2 0.4 3.7 0.6 -0.2 0.2-0.2 0.2-0.2 1.2v7c0 1.6-1 3.4-4.1 3.4C88.2 40.3 86.9 39.6 86.8 39.5M92 33.5v-3.2c-0.1-0.1-0.7-0.2-1.6-0.2 -1.2 0-2.5 0.8-2.5 2.4 0 1.4 1 2.3 2.2 2.3C91.3 34.8 92 34.2 92 33.5"></path><path class="st2" d="M97.4 25.3V29c0.3-0.2 1.1-0.9 2.5-0.9 2.4 0 2.9 1.7 2.9 2.9v5.6h-2.1v-5.4c0-0.7-0.4-1.2-1.5-1.2 -1 0-1.7 0.6-1.8 0.8v5.8h-2.1V25.3H97.4z"></path><path class="st2" d="M111.4 28.4v6c0 1.5 0.2 1.9 0.3 2.1l-2 0.3c-0.2-0.4-0.2-0.9-0.3-1.3 -0.2 0.3-0.7 1.4-2.6 1.4 -2 0-2.8-1.5-2.8-3v-5.4h2.1v5.1c0 1 0.5 1.5 1.5 1.5 0.9 0 1.8-0.6 1.8-1.6v-4.9H111.4z"></path><path class="st2" d="M114.7 25.3v3.3c0.1-0.1 0.9-0.5 2.1-0.5 2.5 0 4.1 1.9 4.1 4.2 0 2.9-2.2 4.4-5 4.4 -1.6 0-2.4-0.2-3.6-0.7 0.2-0.2 0.2-0.8 0.2-1.1v-9.6H114.7zM116.5 30c-1.1 0-1.5 0.3-1.8 0.4v3.8c0 0.4 0.6 0.6 1.4 0.6 1.7 0 2.7-0.7 2.7-2.6C118.8 31.2 117.8 30 116.5 30"></path></svg>